PathFileType	4	(X/Y/Z)	C:/Users/opensim2020/Desktop/walking_exp_matlab/subject03_walking14_straight_04.trc																																																																																																																																											
DataRate	CameraRate	NumFrames	NumMarkers	Units	OrigDataRate	OrigDataStartFrame	OrigNumFrames																																																																																																																																							
100	100	4	47	mm	100	2266	177																																																																																																																																							
Frame#	Time	LFHD			RFHD			LBHD			RBHD			C7			T10			CLAV			STRN			RBAK			LSHO			LUPA			LELB			LFRM			LWRA			LWRB			LFIN			RSHO			RUPA			RELB			RFRM			RWRA			RWRB			RFIN			LASI			RASI			LPSI			RPSI			LTHI			LKNE			LTIB			LANK			LHEE			LTOE			RTHI			RKNE			RTIB			RANK			RHEE			RTOE			*39			*40			*41			*42			*43			*44			*45			*46		
		X1	Y1	Z1	X2	Y2	Z2	X3	Y3	Z3	X4	Y4	Z4	X5	Y5	Z5	X6	Y6	Z6	X7	Y7	Z7	X8	Y8	Z8	X9	Y9	Z9	X10	Y10	Z10	X11	Y11	Z11	X12	Y12	Z12	X13	Y13	Z13	X14	Y14	Z14	X15	Y15	Z15	X16	Y16	Z16	X17	Y17	Z17	X18	Y18	Z18	X19	Y19	Z19	X20	Y20	Z20	X21	Y21	Z21	X22	Y22	Z22	X23	Y23	Z23	X24	Y24	Z24	X25	Y25	Z25	X26	Y26	Z26	X27	Y27	Z27	X28	Y28	Z28	X29	Y29	Z29	X30	Y30	Z30	X31	Y31	Z31	X32	Y32	Z32	X33	Y33	Z33	X34	Y34	Z34	X35	Y35	Z35	X36	Y36	Z36	X37	Y37	Z37	X38	Y38	Z38	X39	Y39	Z39	X40	Y40	Z40	X41	Y41	Z41	X42	Y42	Z42	X43	Y43	Z43	X44	Y44	Z44	X45	Y45	Z45	X46	Y46	Z46	X47	Y47	Z47
																																																																																																																																														
89	0.88	119.44582	1603.34753	919.38409	107.50279	1608.34302	1051.57227	-9.6543	1564.44763	912.77374	-16.56037	1568.41577	1043.11743	-49.56817	1403.03491	967.45367	-82.67711	1088.88171	968.54407	70.37914	1325.64758	976.2561	115.58256	1162.17273	966.02393	-109.85566	1223.45081	1052.39612	34.90941	1368.87292	820.21204	73.90192	1185.84045	740.41785	122.5785	1072.82202	728.1377	203.76294	973.1532	741.82971	272.15216	881.78656	785.94281	258.66772	873.42456	732.35724	315.10764	814.42773	750.91931	8.54671	1346.8092	1132.02161	-22.36663	1125.08667	1200.27979	-24.37063	1012.7879	1216.40796	-37.3634	876.5174	1224.68152	-22.81101	773.59369	1199.453	-62.35186	779.33563	1236.37292	-55.43233	703.763	1233.02856	77.57073	929.4549	843.81958	90.86265	925.58954	1081.75305	-79.64008	952.14941	905.67487	-72.1081	949.76746	1053.44727	-19.87421	634.25684	812.13562	-53.72228	460.13824	851.38965	-151.57278	285.08572	850.1908	-221.68956	85.30078	892.55255	-268.92062	58.94582	928.03577	-78.02814	28.70642	922.32861	102.76141	633.80981	1133.43127	183.22668	474.34979	1096.83228	202.71642	287.1962	1102.45959	262.71524	76.46389	1062.70459	233.76462	38.41895	1005.09387	408.45956	69.95407	1053.44434	NaN	NaN	NaN	NaN	NaN	NaN	NaN	NaN	NaN	NaN	NaN	NaN	NaN	NaN	NaN	NaN	NaN	NaN	NaN	NaN	NaN	NaN	NaN	NaN
90	0.89	132.13097	1601.40906	920.25458	120.06256	1606.31616	1052.39697	3.22849	1562.31262	913.44592	-3.88692	1566.12988	1043.76538	-36.74041	1401.05029	968.58838	-69.81161	1086.73364	970.34668	83.41994	1323.43896	976.72852	128.41078	1159.9115	965.81	-96.4895	1221.19153	1053.69666	47.23871	1366.85962	820.93561	87.35329	1184.53503	740.88373	137.51532	1072.33142	728.39264	221.6687	975.61243	743.13776	292.89539	887.19232	788.52814	279.8009	877.73486	735.00952	338.29803	821.03302	754.43945	22.22065	1344.47546	1132.78137	-10.65242	1123.21204	1201.16187	-14.39793	1010.9939	1217.53406	-29.7431	874.9726	1226.14636	-16.88282	771.65948	1201.20386	-56.46367	778.22839	1237.99365	-51.62431	702.3396	1234.36084	88.71351	927.32355	843.40308	104.74922	923.0918	1081.58801	-67.75803	949.94739	907.82965	-58.53298	947.37744	1055.3905	-11.60254	633.54193	812.41364	-47.55912	459.74841	851.45941	-147.89032	285.9906	850.42737	-220.7971	86.99619	892.71844	-268.33539	61.31849	928.12811	-77.97925	28.61941	922.34808	112.97265	629.82574	1134.45715	196.01004	471.72589	1096.63037	223.53262	287.47198	1103.90198	292.7836	79.33233	1065.75562	265.12296	39.12671	1008.76581	439.14249	78.66669	1054.83081	NaN	NaN	NaN	NaN	NaN	NaN	NaN	NaN	NaN	NaN	NaN	NaN	NaN	NaN	NaN	NaN	NaN	NaN	NaN	NaN	NaN	NaN	NaN	NaN
91	0.9	144.85905	1599.58936	921.08545	132.68129	1604.38403	1053.25342	15.90379	1560.15137	914.22473	8.78758	1564.00256	1044.57739	-23.63389	1398.84351	969.763	-56.75644	1084.52869	972.22534	96.55896	1321.31409	977.20807	141.23026	1157.64941	965.67676	-82.9256	1218.8689	1054.91736	59.64769	1364.87268	821.75989	100.53648	1183.20752	741.43347	152.04605	1071.76184	728.76605	238.91248	977.95032	744.47308	312.88065	892.61609	791.16455	300.20865	882.02942	737.65204	360.64258	827.76868	757.81891	36.00024	1342.31543	1133.71948	1.29182	1121.35266	1202.03479	-4.04745	1009.32471	1218.64258	-21.6262	873.50739	1227.52612	-10.42658	769.91437	1202.94629	-50.01735	777.24036	1239.58679	-47.13339	701.1723	1235.71667	100.46119	925.4444	843.50208	118.62644	920.62122	1081.50586	-55.66598	947.74298	909.92346	-44.44701	945.00366	1057.36462	-2.89659	632.87079	812.51862	-40.80258	459.14679	851.37146	-143.58495	286.93317	850.4303	-219.67624	88.99232	892.55011	-267.6326	63.99416	927.91412	-78.01386	28.43099	922.39941	123.5302	626.03271	1135.78174	209.83913	469.69196	1096.80566	243.65157	288.16788	1105.2804	319.62198	81.75149	1067.76135	292.98083	40.12557	1011.24738	466.22543	85.83447	1055.82874	NaN	NaN	NaN	NaN	NaN	NaN	NaN	NaN	NaN	NaN	NaN	NaN	NaN	NaN	NaN	NaN	NaN	NaN	NaN	NaN	NaN	NaN	NaN	NaN
92	0.91	157.58415	1597.71863	921.91632	145.35248	1602.60608	1054.06384	28.75754	1558.05029	915.02216	21.53216	1562.00891	1045.68323	-10.61218	1396.77515	971.12488	-43.41385	1082.44507	974.04773	109.79195	1319.23889	977.87372	154.31868	1155.55359	965.6283	-69.35839	1216.57935	1056.24536	72.06841	1362.99707	822.66693	113.77069	1181.96216	742.04083	166.23009	1071.21643	729.16913	255.62015	980.22156	745.79419	332.15579	897.90063	793.53546	319.83566	886.25964	740.25909	382.0874	834.54388	761.0874	49.79945	1340.16992	1134.64453	13.39453	1119.62268	1203.03918	6.81479	1007.73059	1219.73474	-12.96497	872.18713	1228.89014	-2.79832	768.73328	1205.07361	-42.94627	776.36279	1241.13586	-41.74522	700.19946	1237.17761	112.12769	923.62836	843.61023	132.42029	918.33643	1081.34753	-43.42428	945.77374	912.13849	-30.69264	942.80017	1059.48523	6.3246	632.13354	812.57727	-33.20063	458.45203	851.1535	-138.76379	287.90848	850.224	-218.37068	91.16417	892.19232	-266.92987	67.30394	927.35071	-77.77174	28.51621	922.39667	135.18401	623.01422	1136.67578	224.7616	468.55972	1097.10278	262.74615	288.78088	1106.56433	342.36975	83.39022	1068.94934	316.57916	40.72884	1012.76062	489.0061	90.65221	1056.24121	NaN	NaN	NaN	NaN	NaN	NaN	NaN	NaN	NaN	NaN	NaN	NaN	NaN	NaN	NaN	NaN	NaN	NaN	NaN	NaN	NaN	NaN	NaN	NaN
